<mxfile host="www.draw.io" modified="2020-02-18T22:09:59.349Z" agent="Mozilla/5.0 (X11; Linux x86_64) AppleWebKit/537.36 (KHTML, like Gecko) Chrome/80.0.3987.88 Safari/537.36" etag="4-6EzDtDxygYS7rlJKQR" version="12.7.1" type="github">
  <diagram name="Page-1" id="b5b7bab2-c9e2-2cf4-8b2a-24fd1a2a6d21">
    <mxGraphModel dx="1001" dy="723" grid="1" gridSize="10" guides="1" tooltips="1" connect="1" arrows="1" fold="1" page="1" pageScale="1" pageWidth="827" pageHeight="1169" background="#ffffff" math="0" shadow="0">
      <root>
        <mxCell id="0" />
        <mxCell id="1" parent="0" />
        <mxCell id="5k4s4s0R29hjNp8F9JWH-9" style="edgeStyle=orthogonalEdgeStyle;rounded=0;orthogonalLoop=1;jettySize=auto;html=1;" edge="1" parent="1" source="JqVKfYrmbBmUEXZO78Cj-1" target="5k4s4s0R29hjNp8F9JWH-1">
          <mxGeometry relative="1" as="geometry" />
        </mxCell>
        <mxCell id="JqVKfYrmbBmUEXZO78Cj-1" value="observe&lt;br&gt;&lt;br&gt;Switches, wetter station, temperature measurement, ..." style="rounded=0;whiteSpace=wrap;html=1;" parent="1" vertex="1">
          <mxGeometry x="160" y="360" width="90" height="140" as="geometry" />
        </mxCell>
        <mxCell id="5k4s4s0R29hjNp8F9JWH-10" style="edgeStyle=orthogonalEdgeStyle;rounded=0;orthogonalLoop=1;jettySize=auto;html=1;exitX=0.75;exitY=1;exitDx=0;exitDy=0;entryX=0;entryY=0.7;entryDx=0;entryDy=0;" edge="1" parent="1" source="5k4s4s0R29hjNp8F9JWH-1" target="5k4s4s0R29hjNp8F9JWH-2">
          <mxGeometry relative="1" as="geometry" />
        </mxCell>
        <mxCell id="5k4s4s0R29hjNp8F9JWH-12" style="edgeStyle=orthogonalEdgeStyle;rounded=0;orthogonalLoop=1;jettySize=auto;html=1;exitX=0;exitY=1;exitDx=0;exitDy=0;entryX=1;entryY=0.5;entryDx=0;entryDy=0;" edge="1" parent="1" source="5k4s4s0R29hjNp8F9JWH-1" target="5k4s4s0R29hjNp8F9JWH-11">
          <mxGeometry relative="1" as="geometry" />
        </mxCell>
        <mxCell id="5k4s4s0R29hjNp8F9JWH-1" value="" style="shape=image;imageAspect=0;aspect=fixed;verticalLabelPosition=bottom;verticalAlign=top;image=data:image/png,iVBORw0KGgoAAAANSUhEUgAAALoAAAB3CAIAAAA7Gs3MAAAAA3NCSVQICAjb4U/gAAAAGXRFWHRTb2Z0d2FyZQBnbm9tZS1zY3JlZW5zaG907wO/PgAAIABJREFUeJzsvemPZNl1J3bOufe+JSIj98rMquraq3pls0k2h6RtGSKlWTxDjjQmJFmQRNkGZI5g+4PhgS3D9icD9h9gy9YAtse25Blg6JFBmRppNJZG0ogCRVIke2E3u1nVte+Va2REvPfuco4/3PdevMjMquomDBgG+nYgOyredpez/M5yz0MRgQ/bh+39Nfr/ugMftv8/tQ/J5cP2AdqH5PJh+wDtQ3L5sH2A9iG5fNg+QPuQXD5sH6B9SC4ftg/QPiSXD9sHaB+Sy4ftAzT99FNYGFkggBCgLkpfFhUhcLBJmjrn0zSZ62csQHj4UkCE+HNR+hBCYb0XEREQJC0gEJgRUClEJERgZu8DIiqlEFGEAaAsK00q0RoQmZmZnXOJMYgoAMJIpLz3zrk0NSEwIiVJgohlWXhv8zxDIg7svROALE1XlgdPZZSHu9VoVCCgACSJQRBrPSJqo4UlBE5TU5QlAKSpEUYACCEwCChAICIVQlCaQgjMjEhpYjR7BAgAlbPO+V6vL4AA7DwDiLOOiJTGYlJprZjFe5/neb+fVlWBhAQYB6KJCHFxcT5VTxlFBbA/HFWVRUQBQUBAQET2kpokCLrAxqiFQW4UeOsTBQgMKjnybvikIIAAHKKAy9fuX7t6R2sk5cfjURzPyx/5CBL1e/loPCmKMk3M/v54bq43P78oEnb3dpnl/v0Hw929pDcgk2mtJ+PRzZs3zl84h4TO2aoskjT1zhuTaK2RsCgKBAwhTIrJ0tJSovR4NAaAoiwJURs9mBsMh0NEDIFBUGuTZimI7A2HhAiIVVWtrKykiX60+cg5x8wi0J/rnz51anl5aWd3R0lwVZmm6cmTJ51zjzY3mYOtrDFmaWV9c6+8evXqzs6O1ppIifDa2prW+t69e3EqtNbz8/Nzc3Pb29tVVQEAM88N5haXl0fj0Xg0RkLnnNFm9djqZFyUxUix11pVzs0vLs7NDbY2t/fHY0BEpfp5L0tTrfV7V9/LsuzEiRPxhuPxZGvrIaKHyGYMCKCICHFjff3YsVWSAMD1ciISTRmBSe2Nxvfu3xuNRjU7IhIREQGDgvSZ02cmZUFEZ86cunBy6Smk9xTpgjXNMAcgRKCr1+68884VYRKQb3zrz7/+9a9rrcuyXF5e/vmf/3nv/Vf+8Ve2d7bSNLXWff5vff7Tn/n0V77yf3zve98dDAZFUZw5c+aLX/y5Xn+hl2dXr13f2to8ffo0C3/1q1/9zne+3ev1nAuffPXVz3/+83/5ne987WtfA5AQwvra+i/+4i8qpf7hP/xHDx89YvYA8NM/9dOvfvKT//yP/sW3vvlNJBV8eP7557/0pS9dee+93/zN3xQBZk7T5Jd/+UunTj3zv/zWb926cVMbY639iZ/4iZ/5mZ/5J//z//o7X/2qJoYQTp8586u/+qubm5t//+//hrWOiKqq+rmf+4Uf/8m/+t3vfvtrX/tar9cb7g/Pnjn75S9/eWt79Ou//t/GaSHEL37xi5/5zGd++//8yptvvDkYDMbj8auffPUXfumXXvvuX/72b/+2MSaEMBgMfuVXfqXX7/+D/+l/vHfnZlyuv/m3Pv/jn/3cP/uD3/vTf/lng8GC9e7c2XO/9Iu/OBgMqrIc7u0tLS4iYpIk777zzm/+5j/IcmWUUqSJiBAQkACi4MYOuRxoAVEAmdmHwMzGGAQIzCF450Kazn3pS//26bNnrbM//OG7vezF4yvzEhjBP066vA9lBABIBDgcTd67eo2Ikrx/+87tm3fuLi4fi5L5lVc+urq28Sd/8ic6zY6fPK00LS4uPffSS3fu3R+Ox2fOXcjzrCzLj378E2vrx13FIUgxqZ5/7sUs61+/fm1/ODpz5pyIcJCzZ88nSba3s7e8uNyfm3POPXvp0tqx9Xcv/1CnyekzZwBAKXXqzBkBCCynz55L0zQEfvb5F9K8N5pMzp4/n6ZpCGFlZeXkqdPW2+PHT66urmmtQwgXLlxkEW30Rz/2scX5uclo9MzJZwYLS+OyeuEjHzXGaKWttSdOPZOmyfLy0sc+9tE8y0Uk7+VK0Vy///LLL4kIkXLOLiwMEqPPnz3rrM2yTIQXFubLYrJ2bPWll14kRAGwVVVMxhvra+fOn+3lejCY994zB6XVc889d//BA60NA2Zptr29vbAwv76+9tZbb4kwAALIxsa6Itze2lSkhFlYenkGLCLCPiiljFEgNblIlEDxO4igEhEWISJjTDmZhKaJwP3i0etvvvb8Sy/wiFGpe/ceri7OGUXAj9VwTycXZhFEz3zj1h1EMolm4cvvvadUcunZ55xzc3ODz/wr/9rOzs7m1s6p02d7vZ615YsvvrS4tPza62/MzQ2Wlpc5hCxLL156djIpU5Ntbm1mWb68vIJId+/ey/P85MkT1trV5WMvvfDSztZOcOHihUuEmGXZyy+/nOhkuLe/unJMa62N3tjYWD22tr2zk+e9s2fPISIinD59ytqqqsr1jfUsy6qqWju2JsL7++M8783NqSiEB/ML43GRpvnx4yeyVGd5ng/m9kaj0rr5xaU410meK612d7YIZGlxwWitjRkMBighuGppYV4EEMF5z945Wx5bXdndWcl7vRBC3ssSoxYX54+tLFtniYhoQSns9bJTp076cjw3PwiBWUJZjE+cPHHx4sXt7R2dGm+9taUILy8vLS8v7e3trq+vi4S1tdVTp0998y+u51mOiCQw3Bt67/MkDd6LMOKURLrKCBEr54KIMQkiiIBzFpGUUlorpbRAeP2N1z73E59b3zhuK7c73BvuT1YW5wAfi+uehF0idHEsIcDDR9s/+MG7e/sj57wITKrK2qCUGo/H3vs0TdM03d3dzbJMJAR2WZaJCDPHRWJmEVlaWkLQiUqLsnjmmROj0ej3fv93i2ISOAiz0iol0+/3ra3KshIRAFSKiEhAJlVFWjnnIloyxlRVZa0lIgBxzvX7cyJSFAUiAghADepahkNEYQ7M9S8CIThjjIg4a41JInfWcE1YvNVKkyIihfF6AAEBAEVKAAAkYgGtlIAgIgCQ1kmWjscTZlaKnPNJYvI8B8SqKCQ4nSRV6ZBIaW2t/+Rf+dQrr7wihJPRZHFhod/vex8ePLh///79ixcvKqVE4He/9tWv/OPfmp+fT7UJgTl4YCFEAAAWwRlN1F1QhpnVDSForaOtoLS2LJ7hb//03/nZn/23ENAVxerSwgsXz2WZeRxJPF26EOGkcNvb+ybNF1VS2epf/Mkfb21tEWrn/IUL53/sx37s9u07X/+zP3PeESnnqp/8yc+dv3DuD/7gn9+5c0eRKopi9dixz3/+bw4G8wBq8+GmTnrH1lb+9M/++Hf/6f+1tLTY7/eYOU0MeAmBlVYcgvdea2OM9iGURYFKmSQJIXAIpCjSIiJqpRnYVpUxmkWCD1orRIwL28wdAQJI/BN/rAnIKCUiPoRoiEUWQcAQnHOVUhR/j1MsEmkCqTECI+WFELBpAFgFp5UyJknTJIQAAFrrSGzsvGcmpRFxPCmGw/2Tp07+tb/+k0Xl5ufmgwveM7MsL69sbm4rpdM0Q8QLFy7M5b1Um5MnTybGcAjAAgAoAAAu2Cl9MEfQHUfnObCE1mBh5hA8iFTWjouCtGIXvvfa9z75qU+fP3teaT2ZFJubO8+cXDts4rwfcpHYpeH+eH88MSYbzGdvvPH6H/3RH66urNrSXn3vvRef+w9Obmz83//s9//p136n3+9b677whc8/d+lCMZn8yR/94e3bt3u9nnPub3/hC6tLi94FnSpUvLw0H9hevvw2YKiq8Wi8453Ps0wLFkWpjUbEaFUmSQKIwXto1h4ROQQBUCraB8gSmL2wAAAR1RIiykYBEWznK9rnrbxh5nalmQW7c4SNSG6RQHdeOkwrANB0DACDMIMsLS1Vtrr/YBTRJTPHU4UZCJmFRbI8n1+YT7NMRJQik5igJUkS772IEFFV2TTNROTU6VOLy4vbW1tlMfaVAhFEwlqCAhAhTgdoTCsbUKMClLbvSikkUkS7u7vD/X0gShJz+/atO3fuvPTiRyqR4P3u3t6J9VUyR+ujp0sX68Lu7p7WRkCVpVtaWflPf+0/y5NEMWxvbT3/wguT/eGrr7zy0n/93yBCmmanTp3sZ2k5Hv6Hv/plrZXSejQar66uJAqRwVaTSbF//vyZzc2HN25eNQZNoo6trQPg/t4esiwsHGORopj0eqlSKsqYvLcAXqqyIFJaq6qyImKMARBrnQgmaVpMCiJK09R73112FozuBhCIlCEgUSyQ0t57QjTGOOdahQICSIRaiUSxwjijziWEAALQWSSM5ELILD6EqigBoJdmWmsfvGchRVppYQ4ipEgAQhBr7crKUpomXNkQWCnNzJGgtdZFUaytrRGp1ZWV5aWlq1euBOdcZbVSSikQQQFEFMKaNQQa4kGRSMkMOGWzeOcQAgKSwoCQ5dlov7hy5cpf+6t/wySJMYYZisr1TfojkksxnnjvTKK1Tra3R3/6x3+0vnHMFqWE8Nyzzx07tvyd73znO9/77tLikrVVlmXzi/2FpVNvvvnWeDyKLGuS5OWXP5rlPYEyYEiTHil9/8Gj3d394ydOzvXz+YV5nehytKRZ52kWgrfOpWlKRGVRAECSpD4Eax0hKqIQgiIiUiDinBMUY7S1FRFpY4L3EffEpeXAraSJc9eaDqRU5HuttfeemaNlClEjkRKu/9NaKaWiphKUBhJIrfKiZEIEEEQgjQ8fPKwql2e50goEJkWhSGmtAWBSFHmeAeL+aLy7u1sN9zMiIcWEgOScU0obrVZXVhSpzKQC0E/zE2vriSKDCFoRolYEAOwDSyBQAAAi8f7eORbRWguzgCBhi1dsVWV5HkIIHBBJKSAURXL53beL8e7K8jI7H5jHruzDByeXaNaX44lWCCJ5P3n766//o//9fwvePnvpksny3qD/r8/9+Nf/4s//+//u1wcL81VZHVs79j/8xm94wH/y1d/55je/+fLLL58+fXp+fv4LP/1vkklSVKPt/cXFdaP79+9vBcYXn39pMN9n8ahQIylLCBJdSa0zNMp+L1yzswgB1vIfkBCBMJoEkUCIFE71CvOMsGlGFY9BLTUiKAmBW6WDAIi6lR7B+1ZtAYBIaImlVW0R/GqNSOLLKgQ+dfo0CIBgkmYhsNGaRZzzLKKQtrY3f+/3fu/1v/zuL/zszy31eqWAkALIgUVrc2J9bWd3yM4Znfb6g/VjK95ZkXxjfR0Adnd3AGD1+Hoxmezs7CwvrxhjNrc2FdHx48f39narys4vLiDh5tY2APf7Ped9WRRKmTzXOzu7nkOoKsChMUlVjopif27umdF4LExjNztj75NcYnPBE1FE3xsbJ7785b8bfHXmzDmdZBcvXdwfjV/52Cd+7T//L43RIrCxsf7KKx/3QX7pl/+dn/o7Xzx16tT62rrWmoGK0lVVubW1+czJU4rAVaUG+PY3vpEYBcBIIAI+xOVolqWV9gASAvJURtQyIJ6AEqMN8cKIbNqmDscmWnKJjt72TKVmj87gFcTagQ4IzKEmFY6EIp3TRGtVFOWx1WPWeu85hKBKS6R294bOc57naZatrqxcen7j3z1x5pVXPqrTvhAVk9Kzt7Z0lRUJO5tbInhiY03YpVnv+MlTAgqVWV5ZzfP80ebWpWefPX/+/Gvfe620/tnnX7BVtT8av/DCC0tLy6+//tpg3rz6yVfv3Lm3tT165tTpEydOfOvb3yaVfeSjH8+y7MGDB8fW11Y31hcWFzaOn5ifX1hcWNnc3BUBRLx9+/6p1SVNR8CX94FdKg+kCMk5/9GPvfLqJz6mCZwPQWrz5POf/6nBIPMeRqPRcDj84eX3hsPJoL/Y7y3sbA0f3NusrC0mE2YmpS6cP5ueU7Yq3nnr+9VofzwcKkIULxwCkddasCYWhBqiCgIJUOVgurbNwXiq1OvVgFbuQlGlSWK0BBpbIt4UAGTmTK1NK5VYIHSOdR0bAKAUNRj3CDeECFSVffBw6/tvv4uotNYhcL8/t3H85Plnn3vxxZfOnz83GMynaQoARVH8/h/+8WQysR6sC8G74CrPdnd7+8UXnnvxpefKsggSkjy3Ljzc3AoCaZoV1u0O99959/KN27eVUvcePNzf39/a3Xu4tb29N3y4tTM/GFy9fuPWzXuVFaR8ML/6mc/8+KuvfuJTn/oUABRFqRI9qSaTSeG9Hw0nX//6XzgblFIhyP7+8MIzJ06sHRETeAq5iIB1ltKeBLDWRStRgg8hLK6uKVJlObl+48aN69d2dvdG+/t7w+FoNFYqV0oppZ21WmsB0Fo758tyvLX5rV6enH7m5HMXL67MD4wiYpbgOAQvUmoSgCa4gQjYmjgZKo0YHQmCiISAIDEIIkI8FUnRl9rSlSAIYE0o0pADCggYUtQSSCOw6n8RgDrCuYmtV6dDLq1+i/Za8GydS0wKTS/TLDt+/PiZcxdYm/sPHm5tbd24c9/7UFWlCAiIcy5N+wgKBEDpVFPWz+8/vD+ejLI0CeJfeP6l//jv/SfeewHw3udZZp0jxM9+7iets4pUCMGHEPv26U//qwLCLC995JOk0kuXLl04fwEQiklx5eqt3d1dZ13lqsqVLIKIWhthQdQcZDIpEYz3R0cVnkQuIlJWvj83cIJegkKT93qJUVVZ7O3uvfvO5Tt3bt++fbsoiuhdMMaIQJbmoBJEQkSTZzViJ9RpylXlQ3j+hefXjq39e3/3AjtLCKk2wTn2XuvEKYwSJEpFqq1FAACtIP6LRViEQQBBAAVAiXQIZMZlIPU59YJ21lVAAOOFdYx2hj4F2Ao3cLk2N9rbNxC3tdXbn1EpLQAhsNGJ0SAAo31369atq1evffNb3xlWtqwqEVFKK6WQjDBro5O8H6wIAwjGGxttJmWpjcn7PWG5cOmF5154OYLZCM+jsR1hbKTa+N17b4xhZgAcjaq79x7dvXf3tTff2tnZCSG6Q7UiQkKlUhWnBYkUxacnJmMO/jHw5cnkAuNJIUQgpI0ySWZddefOrWvvXbl39/7+qPQhEGKa9WLgCkREQGkMNfis1ybaw4RYVZUCAKDd4ZBDYB+0Vr08RwFnPVoGRJYaQR7QKZatMsoYI8zeeRZBaXysnWfBYQWBHSERQ3I1RQpFOdZoMeGWBEBIQEUSaGmmK6EaR3ujBBs8hSEEBEoSY+24LMsrV67eunlrONwPgQVQpWm/nwIIswACIUZBJwykUBpPDxE6Wz64f/vevYc+rFSlBSBCApSatuuHRlus0d4AgKC1IaSt7c1rV6/dv781GpeTyQQQe73caN2oUwQUBdRAe4wJGCKgtbaWa0fRByIXZn7ttdevXL/lgUglyiTD4e5obyc4i6i0ydJs6vGMoYpoJVAzmjrvg1SQQIg++Lv37/7pv/wzH9g5r4xiEWUSrbVzznmfKNOuZWuGAICAWHDaKKO0q6y3LtWGAGrwixC9VtIRLHVyh8DhFLD2EY0Pt8bUzEFqWxkY43W14AiBZ6lwek9E1ErV9IRYVRWIzA363vFwf1SVrt/rpXnfe09KiSKZGlQtRq5JVuIYhAjBmbQo3Nf//BuJSUhplqkV0NhhDZ1Et0HjbwaQ4ENlbVVVpEyS5IOlhfjAqcZFRBSKcezoxqTozwQQVGrq9/sA5CIi167fuHLlmk5zZdKJtYYoMaSM0WSQUuccc6CY0gMgcRJQALlZAkASz1bAK5MGcD74veHEMVvv0GhlTDkqUBEqxQJaizQzKVLbHfWqKMYigAAFIcARWy2gAqCAELCaHR5iSy4o0KWj+vYAIOJCCMI4K5wahx5g554Sg4rNOtXnNWvdRPUEAEVYJBSVRVKINDcYsICgSvPUewcS4pUCU36ICo2BpQbtAkKA5Bm2tvdTbZIsRV2jrFYKtpJRhEUa+wDb+CLlvTkkAsDojGCGKYUBIIiqpSXFrkcBAxIvOpokngJ1A0uv31cmswxZkimlNDJCYAFhjgHAmihahzs0GXQIkfS9syKiFBIRkgKknkm0Ml7Rri1vb2+WwHODQWCw3okIEiFiCB6RCDEwK0XGIAVWPqzNLy3nc1xUxELNDALVEaFOLLCGEyiAHXJh4datq0g3wUMEFK00tjBZhMNUf0+jRM1iCGIcrrQ+/prOhJqognOu9DbLMq1VVVUheKWnsk0pFcUSM2ulS2+Dd3H9AyhA1Erneb/f64MwI0+lC0kbvQKQEGCqU4mUUsIS4w3CIfZNqdpJWK8OIkytRQBAlBj0IAAgRjig0N8fuaAxGQAJKEQkDSDgBZADogAFirk6ANJYpA3jojReaURUaJAQWLEXJiElqZdcVGHMtbD/aJAsnTu1Mym14Pz8nK1sL8/Hk7EC6PX7hFRWpfPerAyK4fDBW5dzkXkvCWhCYYVeixKY6mTEaN7XnUFAoK4jDSN2ERCuEVYzgzVF1KwnTUAgEk/jhKl/VDHYy1hD70bTCyggECXCiGhMKsLGqH4/EwhaJ3mex6B69MfHDFFrbZ7nO7u7bH37UALwwSGJIIsITCNfWJO11PBOsDbPQICZQ/0VoA5/1MIzeB8jnY2AURLDZ8xRoiEANovonPsRyAUQqaFGkhbp1Xryse6vqbiu/7YeEhREJhQCEBTCUnxI1Mc+86mqsgs6m9N68+GjSxfPFaVlZz3gw4cPL164cPfB/T3Dmw8f3H37PR84OE+CJIDMUnNdvcBHOkKiuJEWlsb1oO7RtrU28szvMZbZSvLQpAbUoKEVPTWtIVHtC7CVDewBQRullR4MBkQ0Go2SJNnZ2ZlMJlrrXq9XlqWrbKSh9onTLiEQ0qGu1k+cfXrbfQDCOumugwLrE2qyIAZAqXM84hkkICL8mPS8pyRfEkXrAaMzY6pqnkQrM6PC2SZEolUAFCE2pIjGO1vbd++tra1vbz3yg/6j4RbfhDzvF5Nxr9d7uLc1fqdYWF5yk6IHOkdKiBQAsWgBQFBemIA7a3+AYg53Js5OC/5bsfS4qyCqmyhvIunNQqVueixKA/Q7zl5E1ErH9CCjtYiMRqMYJfXeW2u11iYxzrn2ud1Jgyb2eXRXu3GNA1SONbkcMTN1VlUTxWgDaREUH00tT4kZ1Z0mIhECCdjpUHdNpPnnjMRuuhU/0gwAI9ETEsK8SeYC/OAb33zTM7IYo6ytRCBN07IsYzZCVZWD+XkGqEaTdGxNFpJcUQiNcqHonY3TgZ1utOGfri8YiYQZayXF0EiIzmldXmgWj5BrTyAIYAQu7Uldcml9JxFaKKO1NgLgQwCAyloRSYyxzqVJQkrFmGiSppF04ipGCIXN1DUdaYzojhSROKfdVZudfOyQGDdSBNtpifZSTSPTkR8ppOEplhEAEioVxSDgNGJTu7VaI+Hovs7+iIgMYIAyUBoQBcn61aT3yokzJXAh1hD0UEuSx+6ySSK5qGzJeSek8uXFdAn7opCZSRiACZgYELHBuEfoo1owIkj07NX+PUDBroTHKQfELFnoOAmRlNat0Y1e2lSp6eTGf8bM6xqGIhAqQNBaExESacQQAmmdax2zJpIkgSQRkcDMMsXkiMgydT4JAGC0vBqWaNJ6aDa40x1+yzytgIpHGQBZmABEgLk9B5hZ4IDHq9ueYkhH0RIiZpxOwpTqOxw5I/O735VSMfMNRIyQYRUFoQqyoPVckngAyUEEiAURI67salwEQI/IDByEAwgzQSDwxAFBCyW12JpK8mmUp3XpNmqoGwCa5cUWqktrPNTzAHG5BGpRNkMr3cklRCIFUHsThMVWlmoJLePxOOZ8xfw971zwHhAVUcygmFHcIiGEuArcsYNnCCJyytGL2/StAXfUyqroGY8Qrdt/EWFh5il4n23vbydA3bPoVGyEVuMzgC4+bMZw8Nr2IwAAAWNgXzQDuaBZBCGACDYcdIBcBIxHZGERD8IIgYCbzKca1Xegdbw8LjXwLLd1FGc06ma63Tk05YZDZx76x1Td1SEKkLiZAwGEeX+0PxlPIicw4mQ89t5XZRmTIgCAiDiE5qFy8AMx2aIWkAdnluHozjRjxdYOmILcWgcJAHYD7x0fKRzVPgC5NADucVD3SeC3bZ7QKvQIDAIeEgGqJ1cMoxGK1rcIIwBOndTgEIMSFgkNDiNAYk664KTbzdkJ6hz5f6PJIXJpWLw2LOJXAABhCOPR2FrboECJ6ZXW2nZhajg4xZvNojbSrpZ3h1AFAtS5gm1nWuadhuoPdnx63+ZPK6E62wqOaO+fXOreYu2Ee5JxdGBVus9nhEqDxwYfMBsGZAnIoIiJW6iO3ScgBpEgyAAiCAIEogUVoxJgREcdb2tHTWDtMj+iJ4f/+QRiOnghHjok0ylvTo5rwQLixbcp4m3HOrniM8bLEaQTf+EaEsx2DA6ur0y/SDOV3TtDrXNE4iqIRKOPolNVDojOmfYUN50IglDjNCECBmCM2X5HTe4BRd79MTYFaBgghOgSJYngk1CAAT03sC6CyqlOrXsTraCohkWAgQCAm6ghHzXOA2q4BY6NzwRaYTkNOuDUVuj2vzMxNXSOJNGqTBSMjsy2063UR0IBaLNlYwy/RakH5H98XBuGCyHE/dEN4pXGhwR1Gke3a9K6I9vhSsM5nREBcNxDFiIlUfRgAkjc6Hh4JuEp5CJxKqj+CEkt+REO0XQzNUfdptNIJA2CNgBAG+CoDQupoU1Htk45pQtUI8MxALdWZXd5Z9uB4OqMboIZ+46bjAWMIl0Orl/3wgiJZFaSy2MZE5kFRJimKPvoEzuPa88JIYBq7LKZrWEICNhwyVQWw1SJN1DwsIAUZs8CyCiCTe5Q9P//SJZRe+fpsk2F1WG1OB3n428kInHjZpzl6UIKS2cP1RF3aBk2Og8IpXvizFo+Uacc6B7zrJRs7/pY8jv4uCfq+iOuhEPUcOC2Lcbndgfdk1m6EDmzAAAgAElEQVRxpu8HDh/9MwBIPZHQhPriJlshkCOFdGzvh1xawD7F6gdGekBuHzGkRii0WzFg1iyMh/nxLNdq9K7KP/KhB8zjJ6+6zGZKzD6RumceHu+TF/JxT2yXuFU33XvGCal3S7XT0nFAt639Jeq1D9oEmWszDqOfBBAxgkN+LMG8f6jbTIsIRhY/RLaPEy1RtHGHYrrkNf37GPARW+ubql2TB/h7RlPMGGl81EofuPMRZh7Omhuz1pfM/n0CxRwgxGnsszX1Zw/VpFD7ReqZamcmdpUO3POD0GtnCLX+bv0uNUyvpcuPoowEEZQiEXSBGZBidB4o7rQ/fEErA7rMISKklPc+hKC0ct5Hnvbet+xFGBOwH9uV6LCa9qyZ8e4/D/b+MaLucb2FGUUgIo/dPwGzhN4lAmjikTDrLTz8dGl2y0IjJOJu85h8GAPXUcwcEDYHhOuBUTxBssatDt3BAgoQIbdIn0EkhGCthaPaU4IAU7oTmQalUI7kyIO9bP9GYXDIuu6OUBruadvjpEJLIO2hA52ZutQaE/EJHX3cEZxFrUcZgSBQB+mxK20gFs1qoox8xCOmSL7zDK0UAmilFNFUu8hTphpaL9xRgzoMjpp+RiZupUuLcqS7LofbU3cCdFqdfFTf/gkicEbFtAwh0r0dNEAEansWBJGfIF5a/dV5RIt+jmTix4mcI7/H1kqXmZDjUaL5sXM684DDj5gBn92jdVGnRurA7HTJ44lAnjjew11jFogczNxaRpFuABlqdHj0HZ6OXZRSPkRJJTXLzWwdfXznYKpclFK1cBIAQKVUVC7SbF8WQAHpkkujoR8nWuP3NkH44KpEkHQUg8nR/2oN8sa6fsoAm6MHH12H0o6++AmaIu7vj/wTXcBd5fI+SaEW//WADo+dWyIErKULMHBHumBdD/BHki5B5OGjBybv6ySLDjKuRR+2cyKH6Z3bPtdW2vb2dpamhEiEVVWMRqP5+YX64voOeKCL7XLEb9yMqXtYsHZRdbN6peVgAQDBA7sYWaCTfdAlF6wnLA6n67k9RDrYLIx0uhh/5yYKKzPYpXWeTUfRplhhdJBJiHFHH/aGw36vR6QAoCgKANRaT+mg6/BuZgXrYDW2nuWYDjwD2JtoZOSHwNzwdI2vQwjWVkSPFfNPqv8oAE7kO69999Gj+1ojimcIQdiJeJHoJ+GYezj7gQDACAHECzIqoB/+4AcP7t3VhImm7e3NN954PUZMnHXWOme9td5b5iDtRxjih5lD4JmnBAnMgTn44F3wLpZ9qT+1X6fFOizdDzCAFwgCnjlEIRTtARAhAAJGjrGGOs83fqT91IxMCIiCwCg+Pha4nmUGCPVfZKz/GQA8gBfxIE6C5eCYHbMXccxOvGfnQ2ApyvLateuVdWmW+cBXr12//+ABErVd7Q42BJYgEAQZFJACIgZkIK7JsTuIGIVuBgQhRJcGAzKLE2IO/up7V53zjxNlT8MuEHeERDYJ0QsfsV1cEOzyVt2meRURHzcbmEEgRsYj1A8iKqbqIVJMSwkwBXk+aqtGxtYV/OpeNQA23vagOpjpkxwQfRF7IQgwoMIZ5pum3LIAdKoyHVQcgtLx6raJ1VA75mEmuNNME0wD3tOjrWWkFHlGEXbOOmeN0URIhMwBagdC3Z9uPgoCkIp5hfWTY95kzS6C3RDIjNbuqjgE771WChDGxaQqqyOK3gLAUw1pqZG5sAQRQQj1psDa7Gj8swc8o1OIJ51dNaHJsmCRSAoB22QiYEDsbmpvAytTHDeztI/V5YcwwcEz6y4xgJJWPjfX1l8O+O4OpCAhiHRKwrWKEimmzNRbVrCzQvW5OMV90lFFUG+WwtYlGmJ1St9Iro68VGom95MDQ4fspiBGRGa5pTskjlogbqoSQBJjlNEEEARZPaY83VNiRsLBe+tdJRzYe2kSpEQkQIuaZvOhBIjj1hUGAPEMwNaW3nvvrffWOV9WpXUWQLznhiEREDzUKZUioo1Jk8Ray8IA6J07YPzMTMPMkenCgADyNFUyzmg9ocyotSBppZDQO9+JzcXwpxz5BARo7BaQ2sHdcbaKADMCNfGc2tfe4FZomEe690ZEdlI5m5gkBC8SnC1D8D44EfbOeu9C8E04SLqAEUMj4aJYi4+qUewM69QF1epZYh+sNHdEACcAIuPRuBiPJXzw9ChEyLNsY219Y2NdI1CWkDLOeVQUQqi3jEwRXOdCXwciRRiAlVGnz5yam5uztqqq6tixFaIXNzaOWeud9USklOYAQiLESCgs2ujxaHzz9o0L5y9EMyqOsX1CVw4hITWJCgJCSCJirU3TlBRx5eKeCQAMwZskiXsuEdEF0Sa5e+/eZDw+c+ZM3M8xmUySNCUQCB4RQmCtNUuNCgnRe+85ZFnmvXfOIyIReh+UUsxBJCasKqh3m9SRZGw2yrXws6oqRIzbf6LsnKOeMWZ5aYGANzbWnS3XVpeNooWF+X6/LyLOOWYxxmCj8BHBaBPLz8RaYvGLiHDgmDTcmuj1Ns1GtylDWqnAQSGBgHfOaP3Rj3wkz7IszT4wuRijX37pxeDdJ159taqc0kprU1pvnSNCOqr+B0Ty9m3ql7Bwf6737jvvjMej3d2dyaS4dOmSMfrixUvWOmPSNMmc894HpbAKldYmbg3f2t769re+/bnPfbbX6zFzNBOmz+g0Qup6XyJ5xQ03WmvxHgC00Vrr4Ou9UZNJoZQqrev1B2+++eaDBw8++9nPBu+ryiZpQkjCXthpbcqyEIEkSWK+vvc+SRNFyjvnfcjzrCklp7x3IqKUYuFYklMbE0NkSZLExMpY5qgsyyzLBCAxJpYTR0QRUKQAIEnMG2+8kabp0sL8pUuXHj58dOnSpTgJXdjTSvZY2DFNk6qyIYQsyxCxLEtjDBFx4BC8MQmAhFptQZKkpS2BgIhARBEJCwqkJvn++e87Z5+9eOEDk4v3YWtrc7y/PxmNR5NxCGG4v69N2uv1Y0Ln1MU6i3exCRUiSuAwHOrbt285Z/f29oTl7t071lYxgDccjt59592zZy8gwfXr119+5SPXb9woi/LZZy9NJpO93Z1rV68liUGkCGVqgIuo1LTnMWw5NVkIt7a23n333eeff74oint37r788stXr76HSOfPn/vud7+7srJ67txZIuUCa23u3bs7mUzefuv7ceGdc9///vdPnjhx6pkT77zzzvz8YHFx6b33rly4cGF3d3dvb+/ZZ5+9+t7VxJhjx9Zu3bq1vr6uFN26eevMmTNFMdnZ2zl77lzUUFVV3bhxfWVlFRHu3Ll78eLFe/fuOedOnTp15fLl9Y2N+fnB22+/ff78haKYbD3afvkjLydp4n24cvmKCN+//8AofffePUJIkjTPsytX3quq6sKF84hYb0nDWplvbm5ubm6dPXt2c/ORte6ZZ07eun17bfWYInXv3t0TJ06OR6PK2mPHjt2+fWtubm5tY/3m7Zvz8/OK1Oajh2dOn+llOSFdu3ZtPNr/zKsvz5058cHIxVr7rW984733ru4O94pJWTn77W//JaD69Gc+oxNd2WJqqnQhtyDGss916iMzh4cP7yuly7IwJrlx8wYz37//QCl15879N99842Mf+7ir/LUb14bj3bd/8PZoNLr/4OMsfOf2nd29bee8UsoY0yXKA1ksbSJY/N9otH/58uXbd2+BwN3btzcfPbh+4waI3Lx54fXXX1tZWb1585p3XplMELe3tsfj8Y0bN6L9NRqNLl++cuL4xtLC3Dvvvnv27BmtzQ9+8IOXXnxxd29vd3fn6tUrN2/c1KROnDzx7rvvnj59Riv17g9/eOnSpeFw+Ghz88WXXuj1cmbZ2d15+623zp8/H0K4eevWJz7xiWvXrhWT4sKF85cvX15dXZ2fn3/99ddfffXVvb29Wzdv3717O8/zEHhnZ1spvb8/3N/f3d3du337ZpIkxpirV696769fvxrLAUdLw3NIkuTmzZubjx5devbZu3fvKqWeeeaZ9967srS4rJW6e/fuuXPn9vZ2J5Pi7Nkz9+7dR8Rja8euXr92fGODiK5du/rSCy8mJtFKT0aj/eHwrY+9ePYocnlSGebxpPi1/+K/un79+tLKqg+eBfaHIyCcm5sTANeJm0uz6SHeS4kGkIZchAiHw6G1ljlkWeqcS9Msz/Nmn5cKPhAq0mS9JYq6Bb33W5tbx08cDyHkWc7MoZvi1cWhNKOMIsCMdYaUUhw8B671uvcsnCap856IYoXE0Wi8vz+cmxskiQkhOOfSNOUQUFgbHT2tSZKMx2NjjNY6oqLgpuXpYoBQay0inj0AJ0kiItY1+bksgQMRKaUQsLIVISqtiSj4EIskBs8odZbecH8IIj5wL88nxWRhYT4OjohoNkFTRLxwkhhE5MBKa++dMaaqLIgkSWqrSistIIqUc84kCYfgvE8SHd0uRmuWoEAhoknM/u6ec/bv/Uf//k994d84TBJPki5K6Udbw+290dLqBkvQSXpsYw6VKooCgTTw1Gid5hCCiKgWZ6AwCxEmGd9/cMM6n2i9MD//zMkTWZ6LiCJKksRalyQJAFTeGpNEd7hzLnhYXdlQirQ2zMJh6i3ugmvEqaMTmxzYaQGRmFHYBBiooS1SpJAI6cGDB1qnGxvr9e6WumoyOFfGeuMImKRp8B4QjDHOOqUTYDFpYuOLRkJtrCtFsYpTmqYgEku2llUFIr1+n5m1Uj4E732WZRyCdS5uagzMeZ7bsnLehcBZf3Dv3r3tvb29/cnS0tLqxnFmC4h5lifajEejupxnrMpnlDJaRLI0G41HiUmMMTu7u71eTqCKolycX5gUBYeQJGlRlsZoo3Vlbd7LvHf7o9HK0lJVVrHGZ1H5h9s78wtHv33kKeWAPvLyx9fXT5jE+OADwMLCQq/fe7S5WRYloYZGA7TnR4rplisQEe/96uraM8+cvn//viZ98sTxfr8fOTJJksXFxcmkAJA8z3f3h3Hbt3NuMplMJsXCwmIstyzcqDzpuOmmrfU7zPpdELgml6jpa4QeyUt80ERZ1ou14yKRpWmqtQaQ4XBP67qyXJZlZVkCSL/fn0wKrRNjkr29vdVj60VReO9XVlZieaZ+v49Io/GIENM0jaVyJ8UkS1PnfJalgdk7n2Wpc545GJMUZaGIFhYWJkVRFiURrh5bP3vuwuXLlxcWFhbmF4DYc6m1mev3+73+1qMtV1kErBPgtFJapWnW6+XD4X5TjYGWlpaFYXdnd21jYzyZjEajtWNr+/tDY4wxye7uztLSAgDcv39/cWllbm5uZ2e3qqr5xeWNEyfyXu8Dk4sPod/rlYNBURRKae9dt+6DUtMkjMOJI22LEthoTUrt7u72897S0lJRFPHMaLt67wAgy3MZ7gFAlmXdTRXN6jb0N93U/xh6mfl1Jm+iew42fYs00dhTXG8b8z7LMkVkkiS+haApqJYY4wHQGN3r1a8mUEoppfr9flFMtNZ5no9G+0rruX6/rKo0TZhDZIM0TZnZKxWrBgNAmqYh+CRJIkU6Z6P8U0oNBoO5uTkkDCzWCohIIBCFoBEYo4cIwdoAoJJ+KgETnbGwd25l6ZjWJgS/tLQEAFmaGq0RodfrRbt6YWEhls9YWVlJYvV8DkRojFEKvf/gxcYAwPswHo9JKa2NF2EW5wMRKW2QqHY1dpao4z1qHGWIRMQixXjsvQ8c6lcYNNUGYtqUMSapK6pBVPxRaNceF0Ru6jdFAXOILGIGBDZbD1sfFoQmjw863jSIWkmEhdq9pYHZOdfr9SLpLC0vW2ujC9H7kGYZALBAmmbMAohzcwMWTtNUBMqqStIUkbx34/G4TswgioS4sLAQoU9dyxkREVUsKweQJAkSWWud9xFjxR2NVVWFEExiFJo0Ia20olRAKZWAQUKMFcsAgzFJvzdXVRUISBAQDJ4n46HSZIzZ3d3VWmtj9oZDrXVka210MRojYpIk48nEOauUTtKUOVRV5cOPULBDhIMwQyx6C4DGpIlJFRoOVRv5BIC4/HE92gwxie4EZmttPQscnPPQAAjvfXSxEGGapoLgQ1AhxGCpiJBSpFT94r2mwjYcEXaoKaZ2gc1KuOi1g0YKTjNaEDkELz6EEJh9u5MDERB9CJNJWRSF94E5eB+yPAOAWMuTSDGPYwH6iJZC8LH8M3NN4ixSOSfMzvsIJqJ0cc6JSPTEOOeU1tQUa3Hea6VMU6AwMJdVhUTGJEanAOh8gEnlrOPg2+iG0okiCj6U8U1/Sbq5tdnv9QCgKMqiLInIV5WUZZIkzjkBEOaiLGK9NjsZR0ZH4fjSQG30jJfr/ZILICBkWe6cdc7Ft+DJRNqaKu3sO+firnGlVCzL3r6pIXquGgc5EGF0b0Sqcs5VVSUCzrn9/X2tVSt7IhXGtQ3ex8oj0EiXwwVI4iOiH6yrE2ONzHh0Kp8afmgdOZF8lVJFUcTCGd77+EBCMqZ+jUUEv7XIAxUaZzmiijDf+xCVCzNPxuN4SWQY55y1NmZYRkhHRNKEEEUkeu2ihIsXJkkStZgwikhRlBNmQkmSpCwmpCBNMhZi57cePWJmQrRECtBXFmKpRKpFKQBM35dRp6BgZCcAIEUA4J2PxvIR3Pg+yKVJHYwqBWl/OAocooyNe3oBAAGM1hyCs7ZxP4coWuLKaa3rUFO9Rh0XSXTLhFBVlYjYyiLieDSyVcVNRlkTk2tyMERmVF7zWw3xuKk0Wncc2hTgI2ZBamwTP9RCsOiBrCuINXkksxce/NI0o7TRCgA4BBsCNCXkhDnevyYRZmGGxiqOhK6ImAijYG56hZ2nIACQeG+DK4SDgFjHztU776IVEMuglmWJhDpJm5AUQl3JVkIIRhsijK8pjLeneO8YEHx8tufTI9JxrUQkOAd1ipRHnMlHj9gQGnmQ53nEqlHkzOxskIMPiExflqW1Np452t+PyrvdYlIbRAdCu4c6esT3+KctmjILxglm6K6lFu89Ysxgn5pUszODhyi2uSchUs0DMZ0v1G5oFZ0FCaAPPo6rzdyOIiTO3rRgxcwDOYZ8iWBvf1fEf+qvvLq1vfnNv/gLpTJCqutbERptWDiEMJgbDFIDoFpoH2ubTY1ETNtBcOCyKmOySqzCduTonqaMBIWBuZ7aqJ5DCCK+XTARyfNca22MKYqiKAqt9dzcXLQaJpNJnP36fm2SDwCIaK0jqTlrrXOklYhY52KtzllymfEgH45YtWD2AE0ITH9vT6uXdjZMj/UeABZhBIqFbdrOdtbvsbRS379x/ERdF62tNE2zNMvyjIjinBBRfAkgACpFzrkIPuJOgJkXFNQCkwEZgH2wtio2Nta2dx70+umx1eNKaVW/PLC2qrTW3gdrJTSVb+LAe71ekiRFUVhr814aXYhEVJZlZasGMzyOWp4mXRicIJOiIECkBJiZkYBgmnIRl8cYkyTJ/v4+ACRJEpmpqirfeXOViAhIAAl1bqSkxqR5VlnrmWmmqHqtcQ9ZQzNr3y5zu5ZtcKA9oVlbwWbrczdzaXpaJyUWESFm1tWHDmu/x7aY0oxAgLGwH8bwDgslaSoSvHdEQATGKGZPBEph9Ai3WqmFho1QhLhblgQQIcaXg3V2Ur5w8dn14ycBRCkdXz2NiP1eL3B4+PDR/Yc73telb6KYj/tRImTsJq8zs0IVnRQEdCiprG5Prk0nDFYwoCJ2IkEglg8EJgA1nU0simI8Hs/Pz0fDTGs9mUziuxJDkxQXCTmySYOIoHJ2OBoVVVk5m1IKDR+3GLlVIg3BYxuPPdzfA/KjWfsmpWNqXHdudOjyOLcgdXHZRpDPTgwecWHTYpXFeoSxvpkPvnLBMSjw1lqqa3KJc04pYg5F4Yjiu8Snr8DAekcjeoY6aaded0rTXEKYy/pzc725Xi4oiurS7WmaRezSy1KlCHxruWPk3qgN0jRNTSIsSBj1rxPX7Aj6EbELQL1rMOZWSBt6FuhUBwUQ5rKq+v3+0tKStZaZsyyLccEYr0ecUSXt/FZVtfnoESLGMw9sAu22A6jnSHLpHuqKJTgkkI58yhOn4UlHu+0wDVJ8+6hIVZYLg5xIF8VkYWHOVtbkdWJDmpL3deogM88oIwGY7qKMGA56vV6a95dXVgMHnWSxnC4haR1lDOf9ZDgqDpRqZ+aIGfI8J0RNSmZdrBL3K8lMSK7bnhIEOLRgU1sFOmLcOmeMiXA1Pj563qSJm7RnHlibmEESyeXAye1p74dc8BDynV74+IV+Eq2gzL7L+0n0dODpM+/hEyFATRCCC05NJuK9Q8ToOgtliJXJ4psQ2npjR+USSTRaBIFQmSR9uLldlNXe/jDtDbQmYVEEIQTnxGhNRMIKhLqjiII/OgCFmWC6H7u7EZM7OzkOtKemdse/R/FlZ0ac94g4KYoITiO+S7MseqKil7ZVQzMrj0hKOWtDCEmayuz9u5uED8jIWWKZqbfVIegGtkhdjfjwENpPt0ZF/Eo4VWAHqfVAe4zwluZ1tJFPKmudt1EdKKWUovpVAyJRPFRVFQUzNS8ZmH2uMCIIzy8uBm+//ud/rrWan59nvot1ue5IZBhCcN5yYBs4Iq94E+99dGEDkYRAUsNw6Zh+jS35wckFMXqaa/dhXDgWiTtpuzfUxkR2ruPAANQ4Xdr80ChjeWo11NYmAMTZ8fU7FI+Y9PbvgR+bEQrUeUI1Qow2gkh8k2IDfps4Uav1DsukmKsQa1LGKvP1dQgxfUIr3cnSakqtCiqlfPAAkGjNobb7FZGISAggjCKE0NrP7fbNNnKOTWiizqBgjmsZa8BiHVyP/kk0ab66lrEwsGxv7wqDNgYBrHNaKds4jinRukldbdEuEnEIwXsIHD0dMQ0UG6QtNZj+gOTSTGJMZYm6v1ZGINwttN/WQ5Bp2dYGK4h45yLcjyXwIWbGxJeSN6A9/j6jMmWKu6J27fYKZ04EbAsVA1RVOZgbLC4tVpXd29udso6INPv4ptPReUr0pPV7vbnBIHjvvI/GLTMH7zWRAAj7pjQwQB2lih0PmmKCDwuw9yHPsoWFBVJUTAofguFQFEW8goERMHDo0mt0S2qtK2sj1ba9QqK6rpPUk+eEASEaSahYGzUYDNI08T744MejMSKEEIKvXalxS1JcEQSIb1aRJmYnTay+xi6I+CNIl2aGGwwQvXUoEj2lXf5+vF6PIkQpRcbEzNDgfayFXLtriR4HrI5QHo85rbWlEZGQlFJaadasle76VrB5zbKIlGUJIqhnZgCbGyGiidG4JAGAmKgLAFEyxcltY17xho3EAgTcH+4jQhJjihnHWCmHQKi6ZtWMeEOJdRcUkVKq3mBXhylqcdWwScycj547UASkEAmIiBQrIFKolFJauRAEIL4sOUYAqGkgAFpHDRjD441rUUJ4XJ3UpxfsQECSWsOCADNEL5bQbC2uJ9wFm9TrOL+kdfB101p3q2UfqFwC7VTV6nfG19I9r5FoCAB5nseEfudcYDZKzxIaNpEpEZDuvrQo+avKAo6jdFGktFYA0O/3Yw2L/txcVVWEmCSpSJGmaVVViJSmSVmWgJgliQKqdClBxqMRANavdiNMtCFtulxQSykBACCF3uuy3I0WJSBGTSGCEEtpAAgjQ+NFEwRARjRKAYrzjiWUZYUIRMjCWZYZgKKs+v1+VVVVVQ0Gg6qqiEhpPRmN+nnfGO2c7/V6gGirKoQQPTePY82nYJfxeFQVE22yECsloggHBiaQds/yFNi0897haETQClnC7u7e3t7Ozo6IhKXFpSzP4zai6fZmEd/AeEL0zgoHZh9Dtod2l7VV6eIbD2Pwp3bAEoH3riyLYjIKqWmHE0MTg8HAGAMQUACDl+DF++Bs7VFMDIlh4fFwzxiDgMy8sLCwv7cLAsnqSrE/FIAsy8bjsfi5oiyISOFguLuDRNCfI0TrKkVUFkKkJpOR0iZNzN5wpJRpi4ELABEK1wVdjSGTGBHm/6e9p+uN40iuqrrnY7/I5YdIUUfKonSWYp8jn3XIGXnJUx6Cy3PegvyVPOYlfylAgAPsIDGQQy4QZVsyKYmSSEr8XHJ3dqe7Kg/dMzsz+8ElZceXQAUB2uHMdFf3VFfXV1dZODw8PDo6Otjf73a7C+12vdFAla0ZHxeIrqYMClgFAGjFImBqU2ttFEXdbldQwiA0/cSmtUHS6yfJfKtpBn2lFLDtXZzHYcCc9noXUaSJlLBFlDTtHx8fXSeAQSvVPT/b39vd3PyYEAwLAKMwuVpikkm/VZeKq86SbYLILOaic3b47l0UQLu9FEfapL3mUjtJ+s16jUj7yUMASMFLkaiI+4lebLcajYa1NrVSXJdFWYxQXPXf3IQQRiEItJohL7XQI2GdvqSUiqLIWttsRHEQoUDv4iwgWVlqs2VAUKTqjUY/SSJsu2M7YRjWajUlphbHQRgqbrpQlXqk4ziea8Y+0GllKY/jCYN5RCBSiqg9X2fLxpo4XhDQzsaP2ZFNZwvJrA+mEcda6+3t7Xt3PooDTUSnR4cLC/NRLc7XlVP5sjyMwqavFSkShawJ4jBSSlE9qtcjBIRaKKYfB4SsB93zSCOCJL3zuWYNxAwGaRyRNX1GFBGtpNc9Oz46aM21r04ugf7d3/7NH/7zvz777NeWMXVHFcA4q26AlJXZrHrghFUmAggihGHw7bdPMDvitbi4eH5+8fDhr/v9vjUsktu8RQeOcIBInZycPHny5De/eQQAzIIqLDGwYpEPEEWSkwszh2HQ6yVaKxGw1oShjzKJ49hVeAvDEBCjIGTL7YX5/mDw+eefk68EKV4BBtBKO4S0Uufn51EcI4JJDRIJSBAExlpEEBaXtN2JZVrrXFCwxjhlx4UkC2oXuqYU9fuDWi1O01TERQd7XZKZ6/X6xsbG1tbWo0ePnmxtffzgQVSLRw4/ZHK2TUXYxWG5s0hOJrTWKiQEsMyNRsMa07nmX7gAABLCSURBVB/0iZQwW2uRnPpBRV0aEZ49+yEI9L17Vz9nJCL9QT+M4kajcX6R1KJIRAStCAOzWKEMsyq5eIkxiw8ACMOo0zk7Pj5OkuTsrEOkd3d3tdb9ZGCHbIM5y+9FhL1e0ulcHB6euGC31HJ11x+SCxAOD5+KyMHBwddff/3b3/7F+fn5zs7Ol19+ubW1xSwPHz78/e9/v7Gx8cUXX/T7fa2UsLx9d9TrdV+82HUb3unp6ZNvn9y9s7m0uPT0++9XVleJ8Icftu/f//jg4CBJ+vcf3N95vqO1XllZ2dra2ty8q7Xe2tr69NNPTk/P9vf3P/vsVyJARL1u9/unT+/cuXNxcf7yxcs/f/j5i5e7aZp+8sknX3311ebm5vz8/DfffPPw4cNOp3NwcPDo0SNnSTs8PDw7O9ve3g6C4NWrV81Wq9ZscObYL55LJ6QwIGvNu3fvDg4OPv300+3t7TQ19+7dffz48WJ7cWlxYXtnZ319wxizv7//4MH9vb39IAgWFxd3d3dbrdbc3Nzr169v3brVajW1DgaD9OLiotPpzMWLVyOXNE3/+Mf//uHZ81e7b1IjFESuigMAszH+VHwB9SG5ZKYpJLTWAMj5+bm15uTkxFp+/vxFFEWvX79GRBetl3tnXElHACCiTqezt7d3enqqlBoMBqkdydSSk4tL4+wXHDDL6enp999/j4ipSff39hHx1avXiJgkyXfffXd6enpxceFKTwU6ODjYv7joHh4dM1tE7HTOX7x8cfjusFGvb29v31hZIaQ3b16fnp2+e3d4cXGxf7D//OXLMAzW1taePHny4uVLrYPnz3eOjo+63e7R0fHh0VEYhgByfn7x4sXzvf29bre3t/em1092dl5aaw8PDx8/fvz27dt2u/306VNmPjs7Ozo6clFUSqmDgwMiOjs76ydJp9NJBn2gYfLG7Aipn3VkG0XRzs7O8+fP9/b29/f3e73e3t6bp0+ftZqtpaXFZ8+e3bt3r9vtvXr16qxztru7m6ZmfWP9260nCwsLq6urT58+3djYmJ+fD4Lg+Pg4SXq/fvjgFzf+ctxUT1Zquknyj//0zz883W63lwdGBsYCsIhlF11vc2WllE/Fjci1jQjGpErR2dkZs3VHfBuNepqadnuRmdlCZgsAyHVDRELsdrsnJ6c3Vm5opVJrSAVSsq6XOlM5sTi7ArP35yuVW/9coRrHsd1KtcKI1OmcGWMXFtrZgWfSWgOzO53kdMIwilxtYxYZDAakFSlKkn5eLC8ItLWuoJ5Okr7TS7OIAgAfEsT9XqK1zreeXK1N01QplSSJiDh3ShzHx8fHKysrBwcHtWaDAg3Z1q+yEphOdlGcu2+9HciJXCBAmpjFa84gAKCUttZaawIdEKAzKIdBwCJRFIVh+PbtW63VP/z93/3ur/9qlCSmcRdCCsPwzd5+LzE6iAVd/RsrwGyYB8MMxvmkOPDuMRQRty/yycnJwkJbKbJWtNZHRydLSzfSNNUq9KKu12oYfDIBbLXCVqvtRNQo0KhLFouiZYDYq0k5k3NxwyLCFgi1N/q6cqiAhERaA4BCEICl5VVEsMxxTQNkKpcAFelfQIWBuxtFNSYUkSiuC0AYxZldyvPaRjMqToWILzARKqhFMYyzUMdxnJOOMabX6y0vL5+enjrPq0nNXKPhEq+LLyHmQ1HRH9MRl/nEiT5igVAToassxALWMgIQKZtaREQKjBWfj8radGCVImA873TfvN6/cWM5jmpjSeKS4npz83P9JAm0vnlzrW+MCAtad+hNQzA0mFTdMS5uUQCE2SLKu3eHjUaj1+sReZO5Oz6iSBPpzGwrxVCP3JDvs7xgyVtYmnHOSGFchGl1oyxr/JOMZgiT3CYAAJV00bmbYnRrrrQZqGmpnV0U1fHx8Zs3b8IwDMMwiqJardZsNm+treVBiXkKOz+IIdcd9uaVxHI64KKbBQGDcnQYM1Oaah1GUVWszuGS/C5xHNfr9VqtFkYhKiXADFaEFSoFQf5gJZra57v2h15dMD+54nHGGBdMqpSq1+tsBYBycinmmXVjcwK/Uqqf9kshE4XuCCj3TI0STcUlXoxSMz4xQNZO2VFCE2JWBUbCyrO/i7e8YfGPpWfKpvDypKFLAURE9XrdueiDIHBm6Dw5koPiKArkkjk1neu6jAkAqIIJmxBVNgxEdFtnHMdxHIsIXiMdEHojki/Bg6QAgDIzqzVmqKpgaa6tN/IIgCC5/HLibBL9pF+vByLS6/WiMHJlOIdjKHr+stRUrnelSE3Iuo5C+WY0Si5uuvO3inc1ljeciltq0rRMyOg3XLiTzPwixqbeuCil2s5QyNotmSafpqlzw7pje2P7GkWbiPK54MllGhGgWJPBH1Wxtt9PQJqTEsdfEqtrWASRVEAqTI1x5WQYhKolADGz7QoA4DCbhjgvcL3ZHhgwqYAKdBBFccMK9FOrde4wcsKFl3sRveMxd1lRxoSGLQ9/5eKy4EjUfmmhINiSF7M02qoLYsq8lJ/MLzLrRZaHrGKRQgQKi51y9qqARHEMCCZNGaC9tKjDgLSyIDdurgJiTgYA1Vi+yigyluWK7g2r0xZuZegEzkAqAMDOv8P25q1bWiFdK7QbFKm7d+/qoA5Z2hl2O74AStHS7wviwbjN21q7uroWhtHLly9EbLM1V2+0iAiAwJVI8k4fl5axjMEkkWTkmSmXw5+ANHk7mO75KnVYvpTC33M5ZmyDiOXMpYU7vaQnAIqoNddqL7RTk7pQlUaraU2lYkzFyjXSRdYyFubP7TjFDyMuoVVmK0atFOHi4kKv1yV19c0IABCpvbCYGmBm8MkVx4uAOCG60cVY1Gq1WlwDAHbnW8Oo2+0ROa0hH0LJUzja/lQ8J/D/yXvKLM1e4y0s+CJmIfUcXFgdZrG67pAvIhIgTx/75D8OZ3Z8C7m3zh8XZ2ZgyZ0So3B5AEOS9IKwnhqLihAJModQOWVGhf+XLoko6ffdD9LaWJteXOAwT0lxaD8BuVQ0o0Jn14ZrIzOVgeWWRh8dwSJEpLSSzHd6PWSKDGbYWVFpQi8jiwjweyR5R4AoipUK0kE/6xIAcey43XCr+iGA88UrrZ3oo0PN1gdDEFHR1Sw+5d8YXlVVMabjfRnIj9HIJe2PY7fTeiT0YycU9DmUBQGVQha210HWCS5F7WvSkywi1gozsFhjJih/lwUwKK1FJLU2CEJBcc5zKRpiAaCip5RxcsGqPoxIhAgVKULIq6+AXwFUWXuzr+DpMJbZjIosMuoonTyo6VBUzmeXhyiL9nGvOPMBIroKkbOzzwpIoQrjCKMt8pesKUJSSqvrHKn3zeJwWQzFi0nC8yj4fQfAkboLNfZhYe6W+w1YrcJWbmT27kqXlz0p42gF3ucLzYhopbtixU8o5pcHApDrIlN6snLpfU4ZV3d2I69MXVPURcfQnAgHnl7yP80KhR3UY1W4Rdkmd0kLs/c15XK8tjLh1qR2ricgXwYyFoGc/07q/dozQwhcXCdZDMMUCf1ycsnZiUtl4CWYq6ygCjOs7DgiueorIwvgR4Dp5DK6N4198aokeC08IR/+pRRQRHvKw2MHW7h2vo7M8IWFXeQadhfHSJzDj52D0Qm5SARIE/jVKJYwrO3k1EwlwoiUCS0ZASJMiigehUknGy6Fa6hd12vzqs9LFpDsHsmfdKd3yvy4ePe9JbzsIb9wfTaH8QvgEqsuORnFmWw9ryFCEl9hb1ZQPkEAioDWgTsbPDqe2Yng2h84jxwr2ujG6JlS3Rqm9HgNcpnA1YZ04Kqyu2wKAHbSHjqqQs6O2FBlycUMcaIGkro6d4FClRUCXzsGESSPXp8BywrD/LH0nZ8ari0f/EQITHnm2rhVvqIACJbDNkZgNlHXlVvJlC3JAkeugNkI5H+fvZFKg9d78XqN/Cx0PDpdo3ffp33JFd1is1NbvpRccmk3l1PztmZjzo6rI1b/5R1MevGngXyPkSt1dxXZdna5Vyb89j2OTlf5AbmMaC6VwX9sciESEa3IZtkLCVmAvENxiHlJF52yGvytIav60QSCScgUIXPWZlv1VXbGig1xxhcnyCjT9Hn325+mzjJCjt0cJ4vMMwxhaJ8EKMzG9Gm5hFxcEEFWAg+cvOvFoxFy8VxExsvAmOUKFBGaMOCir6JK9VfcOHJkirfcRZ7GaJZ2/Ivlma4I5FV5tUIuuWQ9E/rDHgFAjauwXVn9U5qtjPD91f3LrboF3KZyYDcbIwqFXxzFBqf0NdrgZKwuwWQcMlfiVxVHwYxou6dHm7qqbSbfJkb3C5jKQiY9NopYUdTN+YzItJmfSdTNd5FJWWLy6bjU3jU7vD+5XOMjzY7AlV58T0ymtz87uZQWAFTJUIrkMgHZyz3S4IWNInMZXU6eVrJEAaUoSRwWHJ8FfClEzLw5UBB1vEmc8oUnY/GZZFD/WaBAvlDl0G5cztqRpf8FL+Y6xda3gJNSaIzyfJdLkfIvNn0e0Hcvhe5l4k493SMtigyCETAshOQCLyjLve9EhGHQP7qa5CzWiAIfx++K1fR7/TiKSRBBBmlfB5qI2MUxDIHEHyIRAAAWBM6kHLQMLpyKrUXOFXlX5rAiZ8BQEkfMffFS+s89WZrKopFQskjhsU+Wp8lHbVYpFwGybPXDdrLu0eHJjI4oGIgCABRJWYwCUQrSQVd4QEIWxBY+H5Z1JetIzZ2cFnCpfdGnJjWCNneulDFBEKSseEsmIKEgCCnS4wlj+kmAURWOAFkKVC9urF7HdgKmxEHgAsKtscKstIoCrRWKNe4zs4wpgy4A7EUEd48BWJgVAqKL0WSFClCsHZRec+RSmBQZxnCKZOWgM70TQAqZYyWjOoHUZDM7QoJQaLNUahdAxB3I9Y57zJDx1JP16J7GTENAAFcl0a87AYNG6yAIyMXMppYRxZg0CuthGPatKcfGFcTJLIWVYwwKUSuVDlJrLJIF4nxmiqFF6L4mg4uhFRaf+R3BmsEg6VU/DwBcbtUVQlCILvDCi12ULQ4Q7+bJaNPPKZJlO0jTdDBIRVgpTUTGYL9/roIoUKGxaZZHpAiclQvx56VEmHKVStJ+t09IYRRWEggNP62ntYKWj3kuR48fsxQ/H2YcGAFcfKq7rcgfMSnxDMkeKE16povBGHJRSlEhej0nl1JUCAAgMFCSJN1ux9iBUtoa22w0QUirYGBZFby6pbxd4HKousZYIZKYpHcBAGwMgyU1rIrshRLMFgmQrz4rnpt63M0gCK/BXQCAFKBydQhQyIsm5HceEZ9zOGM2AMzWpp1BD8QuLCw++uJXq6srxrCIKEXd7pd/+OOTk07PsiCwy7RTBBQLYME5GwVQ2Jh0YK21Zr7ZXF27cf/+/V/eu6e1L2WT77wVpbfS6PAnlkpzVQzTJY8VlnN6D9P2VAEBi4HQlVpLlbggokwqE1cTkPzGiSggZ+cXbw8PXIEkBHVy2v23r/5jMDAuXXo2uirHF3eaVJjZsFgRY9MkjsOP7ty+s3mn0axzIYNOAU9AztEWrbTW2lldhPnPPr56BgYAAKFsq3QRTexzEDIzg1ZKAFKTWpMaNiAS18Jms7m+tnH//r1fffrZ6sqyo4h8uRvBf/nXr10pJj+tQ2uRIFpEtsZa61PA1eLg1trt2xvrd2+v3928s9CeuwTh/8sgsMy//Cg/ILP95vjfv/7GBUaK9fsaOWaRJzgWUIKDfmJtqhQ0G/Ha2trt9VsPHny8sXFrrt64jlI6GaYHMLgqCmA5HfSNUkrACltBZssm5YH/xhBF4erCysbGLzbvfLR26+bGrRuBS4HlTwqKVsqwZZGAUGxqxQAgiFHkK/5ayyxWa1FaK6KFduv2+vrm5ubm7fW1tZtxzaeAEsny8f0cTpz3h6pwPdR3EAAZBIANCAMGqNkkxibWglLaBes6lcUYn7fC0UwUhAvtxvqttXv37mysr62uLC/ONwCAIU1toijI2WJ50rJK7eMA8erBlwKASi66pyhao05S1kq0AiKI4lqrNd9qtW7eXF1ZXVm7eWNhod1qxgrAAigAAXCF0QBAkXK2YU0qinSgwZoUEBQp4TSOwlZrodVqxbVo+cbC+i9urS4vLy8vNRu1/PihFRGwUEgYcxViuWZkzP8GlDbRLCc/CIgQQr0eBqH0kq7WdQWsdeDqrYVh2Gg0FhcXl5eX51qNpYW5paWl5aV5nbclDGAJMVRB0SZc9QpfKcjNvzGZxAzzs/29bx9/pzBUSHEYNmrR/HxjrlkLolqt1qpHV17ip93k2YtXCBiGQRxFpCiKonqj2QhRX9Hq+v8eBODxzrPz8249ajRrDR3oKAy1VrVaPdI/zyKYRi4f4ANU4E+YUX+APz34QC4f4ArwgVw+wBXgA7l8gCvAB3L5AFeAD+TyAa4A/wMIQQr4bY1qBAAAAABJRU5ErkJggg==;" vertex="1" parent="1">
          <mxGeometry x="370" y="480" width="186" height="119" as="geometry" />
        </mxCell>
        <mxCell id="5k4s4s0R29hjNp8F9JWH-2" value="Data Base&lt;br&gt;Store sensor values and log data" style="shape=cylinder;whiteSpace=wrap;html=1;boundedLbl=1;backgroundOutline=1;" vertex="1" parent="1">
          <mxGeometry x="610" y="640" width="80" height="120" as="geometry" />
        </mxCell>
        <mxCell id="5k4s4s0R29hjNp8F9JWH-7" style="edgeStyle=orthogonalEdgeStyle;rounded=0;orthogonalLoop=1;jettySize=auto;html=1;exitX=0.5;exitY=0.5;exitDx=0;exitDy=0;exitPerimeter=0;" edge="1" parent="1" source="5k4s4s0R29hjNp8F9JWH-3" target="5k4s4s0R29hjNp8F9JWH-15">
          <mxGeometry relative="1" as="geometry">
            <mxPoint x="650" y="340" as="targetPoint" />
          </mxGeometry>
        </mxCell>
        <mxCell id="5k4s4s0R29hjNp8F9JWH-18" style="edgeStyle=orthogonalEdgeStyle;rounded=0;orthogonalLoop=1;jettySize=auto;html=1;" edge="1" parent="1" source="5k4s4s0R29hjNp8F9JWH-3" target="5k4s4s0R29hjNp8F9JWH-16">
          <mxGeometry relative="1" as="geometry" />
        </mxCell>
        <mxCell id="5k4s4s0R29hjNp8F9JWH-3" value="Actor" style="shape=umlActor;verticalLabelPosition=bottom;labelBackgroundColor=#ffffff;verticalAlign=top;html=1;outlineConnect=0;" vertex="1" parent="1">
          <mxGeometry x="720" y="310" width="30" height="60" as="geometry" />
        </mxCell>
        <mxCell id="5k4s4s0R29hjNp8F9JWH-8" value="do the processing magic" style="rounded=0;whiteSpace=wrap;html=1;" vertex="1" parent="1">
          <mxGeometry x="370" y="440" width="180" height="40" as="geometry" />
        </mxCell>
        <mxCell id="5k4s4s0R29hjNp8F9JWH-11" value="control&lt;br&gt;&lt;br&gt;Light, blinds, sockets, heating, ...&amp;nbsp;" style="rounded=1;whiteSpace=wrap;html=1;" vertex="1" parent="1">
          <mxGeometry x="160" y="610" width="90" height="150" as="geometry" />
        </mxCell>
        <mxCell id="5k4s4s0R29hjNp8F9JWH-14" style="edgeStyle=orthogonalEdgeStyle;rounded=0;orthogonalLoop=1;jettySize=auto;html=1;exitX=0.464;exitY=0.91;exitDx=0;exitDy=0;exitPerimeter=0;startArrow=classic;startFill=1;" edge="1" parent="1" source="5k4s4s0R29hjNp8F9JWH-15" target="5k4s4s0R29hjNp8F9JWH-1">
          <mxGeometry relative="1" as="geometry">
            <mxPoint x="570" y="340" as="sourcePoint" />
          </mxGeometry>
        </mxCell>
        <mxCell id="5k4s4s0R29hjNp8F9JWH-15" value="fancy home automation app" style="shape=document;whiteSpace=wrap;html=1;boundedLbl=1;" vertex="1" parent="1">
          <mxGeometry x="520" y="300" width="120" height="80" as="geometry" />
        </mxCell>
        <mxCell id="5k4s4s0R29hjNp8F9JWH-17" style="edgeStyle=orthogonalEdgeStyle;rounded=0;orthogonalLoop=1;jettySize=auto;html=1;" edge="1" parent="1" source="5k4s4s0R29hjNp8F9JWH-16" target="5k4s4s0R29hjNp8F9JWH-2">
          <mxGeometry relative="1" as="geometry" />
        </mxCell>
        <mxCell id="5k4s4s0R29hjNp8F9JWH-16" value="fancy bi&amp;nbsp;reports and data logger dashboards" style="shape=document;whiteSpace=wrap;html=1;boundedLbl=1;" vertex="1" parent="1">
          <mxGeometry x="650" y="470" width="120" height="80" as="geometry" />
        </mxCell>
      </root>
    </mxGraphModel>
  </diagram>
</mxfile>
